<?xml version="1.0" encoding="UTF-8" standalone="no"?>
<!-- Created with Inkscape (http://www.inkscape.org/) -->

<svg
   version="1.1"
   id="svg2"
   width="2933.3333"
   height="2933.3333"
   viewBox="0 0 2933.3333 2933.3333"
   sodipodi:docname="thin_lines_arrows_set.eps"
   xmlns:inkscape="http://www.inkscape.org/namespaces/inkscape"
   xmlns:sodipodi="http://sodipodi.sourceforge.net/DTD/sodipodi-0.dtd"
   xmlns="http://www.w3.org/2000/svg"
   xmlns:svg="http://www.w3.org/2000/svg">
  <defs
     id="defs6" />
  <sodipodi:namedview
     id="namedview4"
     pagecolor="#ffffff"
     bordercolor="#000000"
     borderopacity="0.25"
     inkscape:showpageshadow="2"
     inkscape:pageopacity="0.0"
     inkscape:pagecheckerboard="0"
     inkscape:deskcolor="#d1d1d1" />
  <g
     id="g8"
     inkscape:groupmode="layer"
     inkscape:label="ink_ext_XXXXXX"
     transform="matrix(1.3333333,0,0,-1.3333333,0,2933.3333)">
    <g
       id="g10"
       transform="scale(0.1)">
      <path
         d="M 0,0 H 22000 V 22000 H 0 V 0"
         style="fill:#ffffff;fill-opacity:1;fill-rule:nonzero;stroke:none"
         id="path12" />
      <path
         d="m 1974.83,20147.8 711.43,-453.1 c 8.4,-5.3 17.67,-7.8 26.85,-7.8 16.51,0 32.72,8.2 42.29,23.1 14.84,23.3 7.91,54.2 -15.43,69.1 L 2173.26,20140 H 12326.5 c 27.6,0 50,22.4 50,50 0,27.6 -22.4,50 -50,50 H 2173.26 l 566.71,360.9 c 23.34,14.9 30.27,45.8 15.43,69.1 -14.84,23.2 -46,30 -69.14,15.3 l -711.43,-453.1 c -14.35,-9.2 -23.14,-25.1 -23.14,-42.2 0,-17.1 8.79,-33 23.14,-42.2"
         style="fill:#040606;fill-opacity:1;fill-rule:nonzero;stroke:none"
         id="path14" />
      <path
         d="m 8643.02,17737.5 -711.43,453.2 c -8.4,5.2 -17.67,7.8 -26.85,7.8 -16.51,0 -32.72,-8.2 -42.29,-23.2 -14.84,-23.2 -7.91,-54.2 15.43,-69 l 566.71,-360.9 H 1640 c -27.61,0 -50,-22.4 -50,-50 0,-27.7 22.39,-50 50,-50 h 6804.59 l -566.71,-361 c -23.34,-14.8 -30.27,-45.8 -15.43,-69 14.84,-23.3 46,-30 69.14,-15.4 l 711.43,453.2 c 14.35,9.2 23.14,25.1 23.14,42.2 0,17 -8.79,33 -23.14,42.1"
         style="fill:#040606;fill-opacity:1;fill-rule:nonzero;stroke:none"
         id="path16" />
      <path
         d="m 20160.3,16441 c -170.8,747.5 -551.1,1793.9 -1392.7,2533.6 -895.2,786.9 -2120.1,1068.5 -3321.1,1246.5 l 612.7,276.6 c 25.3,11.3 36.5,41 25.2,66.1 -11.4,25.1 -41.3,36.2 -66.3,25 l -768.8,-347 c -15.5,-7 -26.5,-21.5 -28.9,-38.4 -2.4,-17 4,-34 16.9,-45.1 l 639.5,-550 c 7.6,-6.4 16.4,-10.2 25.5,-11.5 16.3,-2.4 33.5,3.4 45.1,16.8 18,20.9 15.6,52.6 -5.4,70.6 l -509.1,437.8 c 1185.4,-175.7 2393,-452.8 3268.7,-1222.5 821.6,-722.1 1193.7,-1747.6 1361.2,-2480.8 215.7,-943.7 231.7,-1928.7 247.2,-2881.2 0.5,-27.3 22.7,-49.2 50,-49.2 0.3,0 0.5,0 0.8,0 27.6,0.5 49.6,23.2 49.2,50.8 -15.6,957.7 -31.7,1947.9 -249.7,2901.9"
         style="fill:#040606;fill-opacity:1;fill-rule:nonzero;stroke:none"
         id="path18" />
      <path
         d="m 15837,11768.1 c -418.7,-161.4 -1041.1,-371.7 -1685.9,-371.7 -28.6,0 -57.3,0.4 -86,1.3 -658.8,19.5 -1243.4,273.2 -1604.1,696 -254.1,298 -413,587 -500,909.5 -97.2,360.6 -103.1,768.7 -17.9,1247.7 59.9,337.4 188.3,648.7 381.6,925.3 184.5,264.1 428.6,497.4 725.3,693.4 550.6,363.6 1270.1,592 2085.8,662.8 l -538.4,-399.2 c -22.3,-16.5 -27,-47.9 -10.5,-70 16.4,-22.1 48,-26.7 70,-10.4 l 677.5,502.4 c 13.7,10.2 21.3,26.7 20.1,43.7 -1.2,17.1 -11.1,32.3 -26,40.5 l -741.8,401.5 c -8.8,4.7 -18.2,6.6 -27.3,5.9 -16.5,-1.1 -32.1,-10.5 -40.6,-26.1 -13.1,-24.2 -4,-54.6 20.3,-67.7 l 592.1,-320.6 c -833.9,-71.9 -1571,-306 -2136.3,-679.4 -307.3,-202.9 -560.4,-445.1 -752.2,-719.6 -201.6,-288.5 -335.6,-613.2 -398.1,-965 -165.6,-931.6 -4,-1601.4 540.4,-2239.6 378.9,-444.2 990.2,-710.7 1677.1,-731.1 31.4,-0.9 64.8,-1.5 100.3,-1.5 339,0 868.7,54 1710.6,378.6 25.7,10 38.6,38.9 28.6,64.7 -9.9,25.8 -38.8,38.6 -64.6,28.6"
         style="fill:#040606;fill-opacity:1;fill-rule:nonzero;stroke:none"
         id="path20" />
      <path
         d="m 19941.2,9916.5 c -21.3,17.5 -52.9,14.3 -70.4,-7.1 l -426.8,-521 c 71.9,693.8 11,1329 -181.4,1889.2 -175,509.4 -458.7,959 -843.2,1336.2 -326.2,319.9 -717.6,582.4 -1163.6,780 -467.8,207.4 -876,290.4 -1136.1,323.5 -27.5,3.5 -52.4,-15.9 -55.9,-43.3 -3.5,-27.4 15.9,-52.4 43.3,-55.9 253.4,-32.3 651.4,-113.2 1108.2,-315.7 434.9,-192.8 816.5,-448.5 1134,-760 373.4,-366.2 648.8,-802.7 818.7,-1297.3 187.3,-545.2 246.7,-1164.5 177,-1842.1 l -290.3,604.1 c -11.9,25 -41.8,35.5 -66.7,23.5 -24.8,-11.9 -35.2,-42.1 -23.4,-66.8 l 365.3,-760.3 c 7.4,-15.3 22.1,-25.9 39.1,-27.9 17,-2.1 33.8,4.8 44.6,17.9 l 534.6,652.5 c 6.2,7.7 9.8,16.6 10.9,25.7 2,16.4 -4.2,33.5 -17.9,44.8"
         style="fill:#040606;fill-opacity:1;fill-rule:nonzero;stroke:none"
         id="path22" />
      <path
         d="m 17916.7,6345.9 c -412.5,561.6 -1051.6,966.3 -1753.6,1110.3 -27,5.6 -53.4,-11.9 -59,-38.9 -5.5,-27.1 11.9,-53.5 38.9,-59.1 678.1,-139.1 1295.1,-529.6 1693,-1071.5 264.6,-360.2 438.3,-793.9 502.6,-1254.2 64.3,-460.3 15.9,-925 -139.8,-1343.8 -155.8,-418.9 -422.8,-802.3 -772.1,-1108.8 -323.9,-284.1 -704,-489.3 -1104.8,-597.4 l 469.2,475.9 c 19.4,19.7 19.3,51.5 -0.4,70.8 -19.6,19.3 -51.5,18.9 -70.8,-0.5 L 16127.7,1928 c -11.9,-12.2 -16.9,-29.6 -13.1,-46.3 3.8,-16.6 16,-30.2 32,-35.9 l 794.7,-282.7 c 9.4,-3.2 19,-3.6 27.9,-1.6 16.1,3.7 30.1,15.3 36.1,32 9.3,26 -4.4,54.6 -30.5,63.9 l -635.9,226.1 c 418.8,111.4 815.9,324.9 1153.7,621.2 361.8,317.4 638.4,714.8 799.9,1149.1 161.5,434.4 211.7,915.9 145.1,1392.6 -66.5,476.6 -246.7,926 -520.9,1299.5"
         style="fill:#040606;fill-opacity:1;fill-rule:nonzero;stroke:none"
         id="path24" />
      <path
         d="m 14173.1,1859 c -678,139.1 -1295,529.6 -1693,1071.5 -264.5,360.2 -438.3,793.9 -502.5,1254.2 -64.3,460.3 -15.9,925 139.8,1343.8 155.8,418.9 422.8,802.3 772.1,1108.8 323.9,284.1 704,489.3 1104.7,597.4 l -469.1,-475.9 c -19.5,-19.7 -19.3,-51.4 0.4,-70.8 19.6,-19.3 51.5,-18.9 70.8,0.5 l 592.1,600.7 c 12,12.2 17,29.7 13.2,46.3 -3.9,16.7 -16,30.2 -32,36 l -794.7,282.6 c -9.4,3.3 -19,3.7 -28,1.6 -16,-3.7 -30,-15.3 -36,-32 -9.3,-26 4.4,-54.6 30.5,-63.8 l 635.9,-226.2 c -418.8,-111.3 -816,-324.9 -1153.7,-621.2 -361.8,-317.4 -638.4,-714.8 -799.9,-1149.1 -161.5,-434.3 -211.7,-915.9 -145.2,-1392.5 66.6,-476.7 246.7,-926.1 521,-1299.6 412.4,-561.6 1051.6,-966.3 1753.5,-1110.3 3.4,-0.7 6.8,-1 10.1,-1 23.3,0 44.1,16.3 49,40 5.5,27 -11.9,53.4 -39,59"
         style="fill:#040606;fill-opacity:1;fill-rule:nonzero;stroke:none"
         id="path26" />
      <path
         d="m 5353.17,10179.2 c -22.69,-15.7 -28.28,-47.1 -12.8,-69.7 l 478.82,-694.4 c 9.7,-14 25.93,-22.2 43.01,-21.6 17.08,0.6 32.66,10 41.31,24.7 l 426.83,727.5 c 4.96,8.6 7.16,18 6.82,27.1 -0.6,16.5 -9.39,32.4 -24.67,41.4 -23.77,14 -54.45,6 -68.43,-17.9 l -339.79,-579.2 c -16.85,520.5 -33.93,1493.1 -50.48,2435.5 -17.64,1004.3 -35.87,2042.7 -53.82,2533.5 -1.01,27.6 -24.14,49.4 -51.8,48.2 -27.59,-1 -49.15,-24.2 -48.14,-51.8 17.92,-489.9 36.14,-1527.9 53.77,-2531.6 16.57,-943.4 33.66,-1916.9 50.55,-2438.1 l -381.62,553.5 c -15.69,22.7 -46.88,28.5 -69.56,12.9"
         style="fill:#040606;fill-opacity:1;fill-rule:nonzero;stroke:none"
         id="path28" />
      <path
         d="m 2854.41,13925.1 c 22.68,15.7 28.28,47.1 12.79,69.7 l -478.82,694.4 c -9.7,14 -25.93,22.2 -43,21.6 -17.08,-0.6 -32.67,-10 -41.32,-24.7 l -426.82,-727.5 c -4.97,-8.6 -7.16,-17.9 -6.83,-27.1 0.6,-16.5 9.39,-32.4 24.68,-41.4 23.77,-14 54.45,-6 68.43,17.9 l 339.78,579.2 c 16.86,-520.6 33.94,-1493.3 50.49,-2435.9 17.64,-1004.1 35.87,-2042.4 53.82,-2533.1 0.98,-27 23.16,-48.2 49.93,-48.2 0.62,0 1.24,0 1.86,0 27.6,1 49.15,24.2 48.14,51.8 -17.91,489.8 -36.14,1527.6 -53.76,2531.2 -16.57,943.6 -33.67,1917.3 -50.57,2438.5 l 381.64,-553.5 c 15.68,-22.7 46.87,-28.5 69.56,-12.9"
         style="fill:#040606;fill-opacity:1;fill-rule:nonzero;stroke:none"
         id="path30" />
      <path
         d="m 9315.89,13021.2 c -12.41,11.7 -29.99,16.3 -46.57,12.1 -16.57,-4.1 -29.85,-16.5 -35.24,-32.7 l -265.37,-800.7 c -3.06,-9.4 -3.25,-19 -1.01,-27.9 4.04,-16 15.96,-29.7 32.78,-35.4 26.17,-8.7 54.49,5.6 63.18,31.9 l 211.08,636.9 C 9545.07,11691 9632.55,10536.8 9534.58,9373.3 9433.89,8177.3 9141.79,7023.8 8666.39,5945 c -11.15,-25.3 0.32,-54.8 25.58,-65.9 6.57,-2.9 13.41,-4.3 20.14,-4.3 19.22,0 37.54,11.2 45.78,29.9 479.87,1089 774.72,2253.1 876.34,3460.2 98.94,1175.1 10.43,2340.8 -262.9,3466.5 l 489.24,-461.9 c 20.1,-19 51.82,-18.1 70.72,1.9 18.91,20.1 17.82,52 -2.04,70.8 l -613.36,579"
         style="fill:#040606;fill-opacity:1;fill-rule:nonzero;stroke:none"
         id="path32" />
      <path
         d="m 4917.78,2807.5 c -132.93,-158.6 -314.1,-281.8 -510.11,-347 -206.86,-68.7 -412.25,-68.6 -593.95,0.4 -206.68,78.5 -372.51,248.9 -466.95,479.9 -106.94,261.6 -104.6,561.4 6.26,802 88.3,191.7 389.95,645.2 1281.83,717.4 50.05,4 99.7,6 149.33,6 161.9,0 321.52,-21 477.59,-59 19.26,-140.1 28.57,-280.7 27.59,-420.3 -2.39,-338.6 -68.78,-818.1 -371.59,-1179.4 z M 7915.36,3139 c -9.34,13.6 -25.28,22.3 -43.01,21.7 -27.56,-0.9 -49.16,-24.1 -48.18,-51.8 l 23.3,-672.7 c -210.88,298.5 -595.31,795 -1094.62,1235.2 -475.88,419.5 -945.01,692.6 -1402.05,817 -45.49,284.8 -130.62,566.5 -252.67,832.6 -193.72,422.3 -477.82,799.8 -821.61,1091.5 -342.29,290.5 -711.35,475.4 -1128.26,565.4 -383.3,82.7 -800.94,83 -1276.74,1.2 -27.21,-4.7 -45.48,-30.6 -40.8,-57.8 4.69,-27.2 30.53,-45.5 57.76,-40.8 954.06,164.2 1692.33,-8.7 2323.33,-544.2 332.72,-282.4 607.77,-647.9 795.42,-1057 112.29,-244.8 192.32,-503.2 237.84,-764.7 -208.9,46.5 -415.2,61.7 -618.27,45.3 -296.25,-24 -571.73,-97.3 -796.65,-211.9 -267.47,-136.4 -458.55,-325.9 -567.94,-563.3 -122.25,-265.4 -125.24,-595 -8.01,-881.8 105.04,-256.9 291.15,-447.1 524.02,-535.5 203.48,-77.3 432.04,-77.9 660.98,-1.8 213.37,70.9 410.55,205 555.22,377.7 321.91,384 392.45,887.9 394.95,1242.9 0.91,130.5 -6.87,261.9 -23.09,393 C 6482.1,4051.3 7407.57,2884.4 7763.76,2381.3 l -617.1,262.4 c -25.45,10.8 -54.9,-1 -65.65,-26.4 -10.76,-25.4 1.32,-54.9 26.5,-65.7 l 776.26,-329.9 c 15.69,-6.7 33.79,-4.9 47.87,4.8 14.09,9.6 22.24,25.9 21.68,42.9 l -29.19,843 c -0.41,9.9 -3.57,19 -8.77,26.6"
         style="fill:#040606;fill-opacity:1;fill-rule:nonzero;stroke:none"
         id="path34" />
    </g>
  </g>
</svg>
