<?xml version="1.0" encoding="UTF-8" standalone="no"?>
<!-- Created with Inkscape (http://www.inkscape.org/) -->

<svg
   version="1.1"
   id="svg2"
   viewBox="0 0 2933.3333 2933.3333"
   sodipodi:docname="thin_lines_arrows_set.eps"
   xmlns:inkscape="http://www.inkscape.org/namespaces/inkscape"
   xmlns:sodipodi="http://sodipodi.sourceforge.net/DTD/sodipodi-0.dtd"
   xmlns="http://www.w3.org/2000/svg"
   xmlns:svg="http://www.w3.org/2000/svg">
  <defs
     id="defs6" />
  <sodipodi:namedview
     id="namedview4"
     pagecolor="#ffffff"
     bordercolor="#000000"
     borderopacity="0.25"
     inkscape:showpageshadow="2"
     inkscape:pageopacity="0.0"
     inkscape:pagecheckerboard="0"
     inkscape:deskcolor="#d1d1d1" />
  <g
     id="g8"
     inkscape:groupmode="layer"
     inkscape:label="ink_ext_XXXXXX"
     transform="matrix(1.3333333,0,0,-1.3333333,0,2933.3333)">
    <g
       id="g10"
       transform="scale(0.1)">
      <path
         d="m 4917.78,2807.5 c -132.93,-158.6 -314.1,-281.8 -510.11,-347 -206.86,-68.7 -412.25,-68.6 -593.95,0.4 -206.68,78.5 -372.51,248.9 -466.95,479.9 -106.94,261.6 -104.6,561.4 6.26,802 88.3,191.7 389.95,645.2 1281.83,717.4 50.05,4 99.7,6 149.33,6 161.9,0 321.52,-21 477.59,-59 19.26,-140.1 28.57,-280.7 27.59,-420.3 -2.39,-338.6 -68.78,-818.1 -371.59,-1179.4 z M 7915.36,3139 c -9.34,13.6 -25.28,22.3 -43.01,21.7 -27.56,-0.9 -49.16,-24.1 -48.18,-51.8 l 23.3,-672.7 c -210.88,298.5 -595.31,795 -1094.62,1235.2 -475.88,419.5 -945.01,692.6 -1402.05,817 -45.49,284.8 -130.62,566.5 -252.67,832.6 -193.72,422.3 -477.82,799.8 -821.61,1091.5 -342.29,290.5 -711.35,475.4 -1128.26,565.4 -383.3,82.7 -800.94,83 -1276.74,1.2 -27.21,-4.7 -45.48,-30.6 -40.8,-57.8 4.69,-27.2 30.53,-45.5 57.76,-40.8 954.06,164.2 1692.33,-8.7 2323.33,-544.2 332.72,-282.4 607.77,-647.9 795.42,-1057 112.29,-244.8 192.32,-503.2 237.84,-764.7 -208.9,46.5 -415.2,61.7 -618.27,45.3 -296.25,-24 -571.73,-97.3 -796.65,-211.9 -267.47,-136.4 -458.55,-325.9 -567.94,-563.3 -122.25,-265.4 -125.24,-595 -8.01,-881.8 105.04,-256.9 291.15,-447.1 524.02,-535.5 203.48,-77.3 432.04,-77.9 660.98,-1.8 213.37,70.9 410.55,205 555.22,377.7 321.91,384 392.45,887.9 394.95,1242.9 0.91,130.5 -6.87,261.9 -23.09,393 C 6482.1,4051.3 7407.57,2884.4 7763.76,2381.3 l -617.1,262.4 c -25.45,10.8 -54.9,-1 -65.65,-26.4 -10.76,-25.4 1.32,-54.9 26.5,-65.7 l 776.26,-329.9 c 15.69,-6.7 33.79,-4.9 47.87,4.8 14.09,9.6 22.24,25.9 21.68,42.9 l -29.19,843 c -0.41,9.9 -3.57,19 -8.77,26.6"
         style="fill:#040606;fill-opacity:1;fill-rule:nonzero;stroke:none"
         id="path34" />
    </g>
  </g>
</svg>
