<svg xmlns="http://www.w3.org/2000/svg" data-name="Layer 1" viewBox="0 0 48 60" x="0px" y="0px"
><defs><style>
      .cls-1 {
        stroke-width: 0px;
      }
    </style>
     <linearGradient id="grad1" x1="0%" x2="100%" y1="0%" y2="0%">
     <stop offset="100%" stop-color="rgb(132, 245, 171)" /> 
  <stop offset="0%" stop-color="rgb(143, 218, 249)" />   </linearGradient>
    </defs>
    <g
    fill="url(#grad1)"
    >
    <path
     class="cls-1" d="m34.221,27.538c-9.955-2.248-11.497-3.79-13.745-13.745-.103-.455-.508-.779-.976-.779s-.873.324-.976.779c-2.249,9.955-3.79,11.497-13.745,13.745-.456.104-.78.508-.78.976s.324.872.78.976c9.955,2.249,11.496,3.791,13.745,13.745.103.455.508.779.976.779s.873-.324.976-.779c2.249-9.954,3.79-11.496,13.745-13.745.456-.104.779-.508.779-.976s-.324-.872-.779-.976Z"/><path class="cls-1" d="m43.221,12.039c-5.292-1.195-6.035-1.938-7.23-7.229-.104-.456-.508-.779-.976-.779s-.872.323-.976.779c-1.195,5.291-1.938,6.034-7.229,7.229-.456.104-.779.508-.779.976s.323.872.779.976c5.291,1.195,6.034,1.938,7.229,7.23.104.455.508.779.976.779s.872-.324.976-.779c1.195-5.292,1.938-6.035,7.23-7.23.455-.104.779-.508.779-.976s-.324-.872-.779-.976Z"/>
     </g>
     </svg>